<?xml version="1.0" encoding="utf-8"?>
<!-- Generator: Adobe Illustrator 27.3.1, SVG Export Plug-In . SVG Version: 6.00 Build 0)  -->
<svg version="1.1" id="Layer_1" xmlns="http://www.w3.org/2000/svg" xmlns:xlink="http://www.w3.org/1999/xlink" x="0px" y="0px"
	 viewBox="0 0 1603.3 251.7" style="enable-background:new 0 0 1603.3 251.7;" xml:space="preserve">
<style type="text/css">
	.st0{fill:#D00000;}
	.st1{fill:none;}
	.st2{enable-background:new    ;}
	.st3{fill:#FFFFFF;}
	.st4{fill:#F48C06;}
	.st5{fill:#FFBA08;}
	.st6{fill:#E85D04;}
</style>
<path class="st0" d="M8.9,124.4l84.5-15.5L49,142.3c-4.9,4.9-1.4,13.3,5.5,13.3h108.3c-4.6-12.8-7.2-26.5-7.2-40.6V94.5L97.4,51.9
	c-11.6-7.7-26.9-6.8-37.5,2.2L2.8,110.7C-3.2,115.8,1.1,125.5,8.9,124.4L8.9,124.4z M271,61.4l38.2,10.3l0.5-0.9
	c2.6-5.3,2.1-11.6-1.5-16.3L272,6.2c-3-3.9-7.6-6.2-12.5-6.2H144c-3.5,0-5.2,4.2-2.8,6.6l30,24.5l-29,12.1c-2.9,1.4-2.9,5.5,0,7
	l29,12.1v52.8c0,35.1,17.5,67.8,46.7,87.2c-95.1,3.3-167.6,19.9-211.1,29.6c-4,0.9-6.8,4.4-6.8,8.4c0,4.8,3.9,8.7,8.6,8.7h242.8
	c30.8,0,58.2-23.1,59.8-53.9c1.2-23-11.1-44-31.4-54.2l0,0l0,0l-49-24.5c-7.9-3.9-12.9-12-12.9-20.9V77.8H249l13.7,11
	c2.9,2.9,6.9,4.6,11,4.6h15.1c1.8,0,3.5-0.3,5.1-0.9L271,61.4 M237.9,32.2l22.2,5.5c-1.3,5.3-6.1,9.2-11.7,8.9
	C242.1,46.3,235.8,40.6,237.9,32.2L237.9,32.2z"/>
<rect x="311.3" y="111" class="st1" width="1647" height="215.4"/>
<g class="st2">
	<path class="st3" d="M345.5,249V120.2h48.2c12.3,0,23.2,2.6,32.8,7.7c9.6,5.1,17.1,12.5,22.5,22.1c5.5,9.6,8.2,21.1,8.2,34.6
		s-2.7,25-8.2,34.6s-13,17-22.5,22.1S406,249,393.7,249H345.5L345.5,249z M369,228h24.7c8.3,0,15.3-1.7,20.9-5.2s9.8-8.5,12.6-15
		s4.2-14.2,4.2-23.2s-1.4-16.7-4.2-23.2s-7-11.5-12.6-15s-12.5-5.2-20.9-5.2H369V228z"/>
	<path class="st3" d="M478,249V120.2h47.1c8.9,0,16.7,1.4,23.3,4.2c6.7,2.8,11.8,7.1,15.5,12.9c3.7,5.8,5.5,13.1,5.5,21.9
		c0,9.4-2,16.9-6,22.5s-9.3,10-15.9,13.2l29.1,54.1h-26.3l-24.8-47.8c-0.2,0-0.3,0-0.5,0c-0.1,0-0.3,0-0.5,0h-23V249H478L478,249z
		 M501.5,181.5h17.3c9.7,0,16.4-2,20.2-5.9c3.8-4,5.7-9,5.7-15c0-6.4-1.9-11.5-5.6-15.1c-3.7-3.6-10.2-5.5-19.4-5.5h-18.2V181.5z"/>
	<path class="st3" d="M633.5,143.2h6.1L602.4,249h-22.8l45.8-128.8h22.2L693.4,249h-22.8L633.5,143.2z M663.4,218.5h-53.9v-20.6
		h53.9V218.5z"/>
	<path class="st3" d="M763.4,251.6c-13.6,0-25.3-2.8-35-8.3s-17.1-13.4-22.3-23.4c-5.2-10.1-7.7-21.9-7.7-35.4
		c0-13.4,2.9-25.2,8.6-35.2c5.7-10,13.7-17.8,23.8-23.3s21.8-8.3,35-8.3c6.8,0,13.3,0.7,19.5,2.1s11.5,3.2,16,5.4l-2.6,22.4
		c-4.6-2.1-9.7-3.9-15.2-5.3c-5.6-1.4-11.5-2.1-17.7-2.1c-9.6,0-17.4,1.9-23.6,5.8c-6.1,3.8-10.7,9-13.6,15.6
		c-2.9,6.6-4.4,14.1-4.4,22.4c0,8.8,1.5,16.5,4.5,23.3c3,6.7,7.4,12,13.4,15.9c5.9,3.8,13.4,5.8,22.3,5.8c2.7,0,5.5-0.2,8.5-0.6
		c3-0.4,6-0.9,9.2-1.5v-23h-17.7v-19.5h41.2v57.4c-4.5,2.6-10.4,4.9-17.8,6.9C780.3,250.6,772.2,251.6,763.4,251.6z"/>
	<path class="st3" d="M952.5,249V120.2h23.2l55,83.2v-83.2h23.6V249H1035l-58.9-88.3V249H952.5z"/>
	<path class="st3" d="M1124,249V120.2h48.2c12.3,0,23.2,2.6,32.8,7.7c9.6,5.1,17.1,12.5,22.5,22.1c5.5,9.6,8.2,21.1,8.2,34.6
		s-2.7,25-8.2,34.6s-13,17-22.5,22.1s-20.5,7.7-32.8,7.7L1124,249L1124,249z M1147.5,228h24.7c8.3,0,15.3-1.7,20.9-5.2
		s9.8-8.5,12.6-15c2.8-6.5,4.2-14.2,4.2-23.2s-1.4-16.7-4.2-23.2c-2.8-6.5-7-11.5-12.6-15s-12.5-5.2-20.9-5.2h-24.7V228z"/>
	<path class="st3" d="M1256.5,249V120.2h47.1c8.9,0,16.7,1.4,23.3,4.2c6.7,2.8,11.8,7.1,15.5,12.9c3.7,5.8,5.5,13.1,5.5,21.9
		c0,9.4-2,16.9-6,22.5s-9.3,10-15.9,13.2l29.1,54.1h-26.3l-24.8-47.8c-0.2,0-0.3,0-0.5,0c-0.1,0-0.3,0-0.5,0h-23V249H1256.5
		L1256.5,249z M1280,181.5h17.3c9.7,0,16.4-2,20.2-5.9c3.8-4,5.7-9,5.7-15c0-6.4-1.9-11.5-5.6-15.1s-10.2-5.5-19.4-5.5H1280V181.5z"
		/>
	<path class="st3" d="M1427.4,251.6c-12.3,0-23.2-2.8-32.8-8.3c-9.6-5.5-17.1-13.3-22.5-23.4c-5.5-10-8.2-21.8-8.2-35.3
		s2.7-25.3,8.2-35.3s13-17.8,22.5-23.4c9.6-5.6,20.5-8.3,32.8-8.3s23.2,2.8,32.8,8.3c9.6,5.6,17.1,13.3,22.5,23.4
		c5.5,10,8.2,21.8,8.2,35.3s-2.7,25.3-8.2,35.3s-13,17.8-22.5,23.4C1450.6,248.8,1439.7,251.6,1427.4,251.6z M1427.4,228.8
		c8.6,0,15.8-1.9,21.5-5.7c5.8-3.8,10.1-9,13-15.7s4.3-14.2,4.3-22.8c0-8.5-1.4-16.1-4.3-22.8s-7.2-11.9-13-15.7s-12.9-5.7-21.5-5.7
		s-15.8,1.9-21.5,5.7c-5.8,3.8-10.1,9-13,15.7s-4.3,14.2-4.3,22.8c0,8.5,1.4,16.1,4.3,22.8s7.2,11.9,13,15.7
		C1411.6,226.9,1418.8,228.8,1427.4,228.8z"/>
	<path class="st3" d="M1511.5,249V120.2h45.8c9.9,0,18.2,1.5,25,4.4s12,7.5,15.5,13.6s5.3,14,5.3,23.6c0,9.7-1.7,17.7-5.2,24
		s-8.6,10.9-15.4,14c-6.7,3-15,4.6-24.7,4.6H1535v44.7L1511.5,249L1511.5,249z M1535,184.6h20.1c8,0,14.1-1.8,18.1-5.4
		c4-3.6,6-9.3,6-17s-2-13.4-6.1-16.9c-4.1-3.6-10.3-5.3-18.5-5.3h-19.5L1535,184.6L1535,184.6z"/>
</g>
<g>
	<path class="st4" d="M843.1,216.2c-5.9-2.2-9.5-3.9-9.5-3.9c10,29.7,30.8,36.3,40,36.3c16.6,0,33.4-4.9,50-28.5
		c0-0.2-3.6,0.7-9.5,1.7l0,0l0,0l0,0c3.7-8,6.3-18.5,6.8-31.7c0,0-5.1,4.4-13.9,10c-2.4-13.2-9-29.3-22-49.3c0,0-4.1,21.2-18.3,41.5
		c-6.1-9-8.8-16.4-8.8-16.4C847.5,192.5,843.4,205.7,843.1,216.2z M865.6,215.5c0,0,9.8-15.4,23.9-23.9c0,0-2.9,23.4,0.5,27.6
		c4.4,5.6,16.4-6.1,16.4-6.1c0,13.9-15.1,31.2-28.8,31.2c-13.2,0-32.2-15.1-23.9-35.9C853.6,208.4,860.5,217.6,865.6,215.5z"/>
	<path d="M914.1,221.8L914.1,221.8L914.1,221.8z"/>
	<path class="st5" d="M853.6,208.4c-8.3,20.7,10.7,35.9,23.9,35.9c13.7,0,28.8-17.3,28.8-31.2c0,0-11.9,11.7-16.4,6.1
		c-3.4-4.1-0.5-27.6-0.5-27.6c-14.1,8.5-23.8,23.9-23.8,23.9C860.5,217.6,853.6,208.4,853.6,208.4z"/>
	<path class="st6" d="M849,143.7c-63.4,63.7-10.7,108.8,22.4,108.8c42.4,0,79.8-20.5,67.8-87.3c0,0-7.3,6.8-19.7,14.9
		c-3.4-19.7-12.9-44.1-31.5-73.9c0,0-6.1,32-26.3,62C852.9,154.5,849,143.7,849,143.7z M885.1,150.8c12.9,20,19.5,36.1,22,49.3
		c8.8-5.6,13.9-10,13.9-10c-0.5,13.2-3.2,23.6-6.8,31.7c5.9-1,9.5-2,9.5-1.7c-16.6,23.6-33.4,28.5-50,28.5c-9.3,0-30-6.6-40-36.3
		c0,0,3.7,1.7,9.5,3.9c0.2-10.5,4.4-23.6,14.9-40.2c0,0,2.7,7.3,8.8,16.4C880.9,172,885.1,150.8,885.1,150.8z M930.2,130.3
		c8.5,14.1,3.4,22.7-0.2,25.4c-5.1,3.9-14.1-1.7-8.3-10.2C926.8,138.1,930.2,130.3,930.2,130.3z M819.5,155.2
		c-4.1-2.9-8.8-13.2,3.4-31.5c0,0,0.5,10.7,5.6,19.3C834.1,153,824.8,159.4,819.5,155.2z M855.1,112.3c11.5,7.6,11.5,13.9,10,16.6
		c-2.2,3.2-9,1.7-8.3-4.9C857.5,118.1,855.1,112.3,855.1,112.3z"/>
</g>
</svg>
