<?xml version="1.0" encoding="utf-8"?>
<!-- Generator: Adobe Illustrator 27.3.1, SVG Export Plug-In . SVG Version: 6.00 Build 0)  -->
<svg version="1.1" id="Layer_1" xmlns="http://www.w3.org/2000/svg" xmlns:xlink="http://www.w3.org/1999/xlink" x="0px" y="0px"
	 viewBox="0 0 393.9 249" style="enable-background:new 0 0 393.9 249;" xml:space="preserve">
<style type="text/css">
	.st0{fill:#D00000;}
	.st1{fill:#F48C06;}
	.st2{fill:#FFBA08;}
	.st3{fill:#E85D04;}
</style>
<path class="st0" d="M8.9,124.4l84.5-15.5L49,142.3c-4.9,4.9-1.4,13.3,5.5,13.3h108.3c-4.6-12.8-7.2-26.5-7.2-40.6V94.5L97.4,51.9
	c-11.6-7.7-26.9-6.8-37.5,2.2L2.8,110.7C-3.2,115.8,1.1,125.5,8.9,124.4L8.9,124.4z M271,61.4l38.2,10.3l0.5-0.9
	c2.6-5.3,2.1-11.6-1.5-16.3L272,6.2C269,2.3,264.4,0,259.5,0H144c-3.5,0-5.2,4.2-2.8,6.6l30,24.5l-29,12.1c-2.9,1.4-2.9,5.5,0,7
	l29,12.1v52.8c0,35.1,17.5,67.8,46.7,87.2c-95.1,3.3-167.6,19.9-211.1,29.6c-4,0.9-6.8,4.4-6.8,8.4c0,4.8,3.9,8.7,8.6,8.7h242.8
	c30.8,0,58.2-23.1,59.8-53.9c1.2-23-11.1-44-31.4-54.2l0,0l0,0l-49-24.5c-7.9-3.9-12.9-12-12.9-20.9V77.8h31.1l13.7,11
	c2.9,2.9,6.9,4.6,11,4.6h15.1c1.8,0,3.5-0.3,5.1-0.9L271,61.4 M271,61.4 M237.9,32.2l22.2,5.5c-1.3,5.3-6.1,9.2-11.7,8.9
	C242.1,46.3,235.8,40.6,237.9,32.2L237.9,32.2z"/>
<g>
	<path class="st1" d="M360.4,155.5c-2.6,0.9-4.4,1.4-4.4,1.4c11.9,7.4,20.9,3.7,24.1,1.1c5.7-4.7,10.1-11.2,9.1-24.1
		c-0.1-0.1-1,1.3-2.8,3.3l0,0c-1-3.8-3.1-8.2-6.7-12.8c0,0-0.5,3-1.9,7.4c-4.6-3.8-11.5-7.5-21.6-10.7c0,0,4.6,8.5,5.5,19.5
		c-4.7-1.4-7.7-3.1-7.7-3.1C355.1,146.1,357.5,151.8,360.4,155.5L360.4,155.5z M367.9,148.9c0,0-1-8.1,1.4-15c0,0,5.7,8.9,8,9.3
		c3.1,0.7,3.9-6.8,3.9-6.8c4,4.8,3.7,15.1-1,18.9s-15.4,4-18.5-5.5C361.8,149.8,366.8,151.1,367.9,148.9L367.9,148.9z"/>
	<polygon points="386.4,137.2 386.4,137.2 386.4,137.2 	"/>
	<path class="st2" d="M361.8,149.8c3.1,9.5,13.9,9.3,18.5,5.5c4.7-3.9,5-14.2,1-18.9c0,0-0.8,7.4-3.9,6.8c-2.4-0.4-8-9.3-8-9.3
		c-2.4,7-1.4,15-1.4,15C366.7,151.1,361.8,149.8,361.8,149.8L361.8,149.8z"/>
	<path class="st3" d="M341.7,128.9c-3.6,40,27.3,40.5,38.7,31c14.6-12.1,21.6-29.8-1.6-49.4c0,0-0.6,4.4-2.5,10.8
		c-6.8-5.8-17-11.5-31.9-16.4c0,0,7,12.7,8.6,28.8C346.1,131.5,341.7,128.9,341.7,128.9L341.7,128.9z M356.2,121.1
		c10.1,3.2,17,6.8,21.6,10.7c1.4-4.4,1.9-7.4,1.9-7.4c3.6,4.7,5.7,9,6.7,12.8c1.7-2,2.7-3.4,2.8-3.3c1,12.9-3.4,19.3-9.1,24.1
		c-3.2,2.6-12.2,6.3-24.1-1.1c0,0,1.8-0.5,4.4-1.4c-2.9-3.7-5.2-9.4-6.4-18.1c0,0,3,1.8,7.7,3.1C360.8,129.5,356.2,121,356.2,121.1
		L356.2,121.1z M365.8,101.2c7,2.4,7.6,6.8,7.1,8.8c-0.6,2.8-5.4,3.4-5.8-1.2C366.9,104.8,365.8,101.2,365.8,101.2z M334.8,141.3
		c-2.3,0.2-6.8-2-7.8-11.8c0,0,3.2,3.6,7.4,5C339.3,136.4,337.9,141.2,334.8,141.3z M334.8,116.4c6.1-0.7,7.9,1.5,8.2,2.8
		c0.1,1.7-2.6,3.2-4.2,0.7C337.4,117.7,334.9,116.4,334.8,116.4L334.8,116.4z"/>
</g>
</svg>
