<?xml version="1.0" encoding="UTF-8"?><svg id="Layer_1" xmlns="http://www.w3.org/2000/svg" viewBox="0 0 500 500"><defs><style>.cls-1{fill:#fff;}</style></defs><path class="cls-1" d="m.33,500.67c0-166.67,0-333.33,0-500,166.67,0,333.33,0,500,0,0,166.67,0,333.33,0,500-166.67,0-333.33,0-500,0Zm332.39-194.91c4.83-7.5,10-13.45,12.86-20.37,8.68-21.01,20.16-41.77,23.92-63.76,12.03-70.3-23.49-138.81-85.38-172.03-56.37-30.26-137.95-24.48-190.53,25.21C9.63,154.15,27.88,293.31,131.14,344.71c54.77,27.26,109.12,24.72,161.35-7.47,9-5.55,14.42-5.65,21.39,2.77,8.1,9.78,17.84,18.18,26.85,27.21,28.23,28.26,56.38,56.62,84.84,84.66,2.36,2.32,8.6,4.57,10.03,3.34,8.14-6.97,15.38-15.01,25.52-25.33-43.85-42.38-85.96-83.08-128.4-124.11Z"/><path d="m332.72,305.76c42.45,41.03,84.56,81.73,128.4,124.11-10.15,10.33-17.38,18.36-25.52,25.33-1.43,1.23-7.67-1.01-10.03-3.34-28.46-28.04-56.6-56.39-84.84-84.66-9.01-9.02-18.76-17.43-26.85-27.21-6.97-8.41-12.39-8.31-21.39-2.77-52.24,32.19-106.59,34.73-161.35,7.47C27.88,293.31,9.63,154.15,93.59,74.82c52.59-49.69,134.17-55.47,190.53-25.21,61.89,33.22,97.41,101.73,85.38,172.03-3.76,21.99-15.24,42.74-23.92,63.76-2.86,6.91-8.03,12.87-12.86,20.37Zm-127.81,37.26c81.06.63,146.32-63.69,147.95-143.94,1.44-70.94-52.04-146.22-142.94-149.24-81.06-2.7-150,64.29-150.76,143.06-.8,83.22,63.52,149.48,145.75,150.12Z"/><path class="cls-1" d="m204.91,343.02c-82.23-.64-146.56-66.89-145.75-150.12.76-78.77,69.7-145.76,150.76-143.06,90.9,3.02,144.38,78.3,142.94,149.24-1.63,80.24-66.89,144.57-147.95,143.94Zm1.62-117.31c-19.38,1.49-37.5,6.52-52.47,19.61-4.7,4.11-9.88,8.85-3.97,16.03,5.59,6.8,10.53,2.49,15.3-.93,27.03-19.33,53.95-19.21,81.04-.09,4.63,3.27,9.88,8.29,15.26,1.17,5.06-6.7,1.38-11.96-3.89-16.35-14.82-12.34-32.07-18.41-51.28-19.45Zm-59.35-87.17c-9.78-.17-18.75,8.54-19.07,18.52-.32,9.98,7.92,18.75,18.09,19.26,10.89.54,19.78-8.01,19.63-18.89-.14-10.16-8.59-18.72-18.65-18.89Zm136.08,19.68c.36-9.19-9.03-19.48-17.9-19.63-8.93-.15-19.01,9.76-19.03,18.69-.02,9.39,9.31,18.69,18.81,18.75,8.88.05,17.77-8.68,18.12-17.81Z"/><path d="m206.53,225.72c19.21,1.05,36.45,7.11,51.28,19.45,5.27,4.39,8.95,9.65,3.89,16.35-5.38,7.12-10.63,2.1-15.26-1.17-27.09-19.13-54.01-19.24-81.04.09-4.77,3.41-9.71,7.72-15.3.93-5.91-7.18-.73-11.92,3.97-16.03,14.97-13.09,33.09-18.12,52.47-19.61Z"/><path d="m147.18,138.55c10.06.17,18.51,8.73,18.65,18.89.15,10.87-8.74,19.43-19.63,18.89-10.17-.5-18.41-9.28-18.09-19.26.32-9.98,9.29-18.69,19.07-18.52Z"/><path d="m283.26,158.23c-.35,9.13-9.24,17.86-18.12,17.81-9.49-.06-18.82-9.36-18.81-18.75.02-8.93,10.1-18.84,19.03-18.69,8.87.15,18.26,10.44,17.9,19.63Z"/></svg>